<svg width="115" height="113" viewBox="0 0 115 113" fill="none" xmlns="http://www.w3.org/2000/svg">
<path fill-rule="evenodd" clip-rule="evenodd" d="M75.7696 0.253645C76.6167 -0.0927576 77.5745 0.182766 78.1141 0.887911L78.2958 1.1721L87.56 18.7404L106.475 24.8093C107.347 25.0888 107.903 25.9162 107.863 26.8034L107.819 27.138L103.604 46.5444L114.199 63.354C114.679 64.1164 114.584 65.0889 114.008 65.7425L113.731 66.0016L98.024 78.1604L95.3394 97.8401C95.2154 98.7468 94.4977 99.4382 93.6172 99.5526L93.2802 99.5678L81.2558 99.1011C80.152 99.0583 79.292 98.1288 79.3348 97.0251C79.3729 96.044 80.1115 95.2554 81.0504 95.1224L81.4109 95.1041L91.62 95.4964L94.1762 76.8118C94.233 76.3965 94.4182 76.0123 94.7022 75.711L94.9331 75.5014L109.844 63.9484L99.7858 47.9867C99.5762 47.6543 99.4708 47.2701 99.4781 46.8827L99.5233 46.4961L103.524 28.0604L85.5604 22.3026C85.1616 22.1748 84.8157 21.9259 84.5683 21.5944L84.4019 21.3309L75.6 4.64039L58.1504 11.7805C57.7866 11.9292 57.39 11.9665 57.0098 11.8922L56.6368 11.7807L39.168 4.64039L30.3692 21.3309C30.174 21.7012 29.8688 21.9985 29.4995 22.1845L29.2112 22.3025L11.26 28.0604L15.2481 46.4975C15.3311 46.8813 15.2988 47.278 15.1597 47.6392L14.9853 47.9867L4.924 63.9484L19.838 75.5014C20.1693 75.758 20.4096 76.1105 20.5287 76.507L20.5949 76.8118L23.148 95.5004L41.9944 94.7774C42.3864 94.7624 42.7712 94.863 43.1026 95.0624L43.4144 95.2942L57.392 107.964L65.3356 100.755C66.0626 100.095 67.1428 100.07 67.8953 100.647L68.1608 100.892C68.8207 101.619 68.8458 102.699 68.2689 103.451L68.0244 103.717L58.7377 112.148C58.0708 112.753 57.0971 112.829 56.3532 112.376L56.05 112.149L41.328 98.8044L21.4901 99.5678C20.5759 99.6029 19.7707 99.0162 19.5052 98.1692L19.4318 97.8401L16.74 78.1564L1.03979 66.0016C0.327389 65.4498 0.083487 64.5037 0.401475 63.6921L0.57243 63.354L11.164 46.5444L6.96743 27.1366C6.77402 26.2425 7.21181 25.3476 7.99971 24.9389L8.31103 24.8094L27.208 18.7444L36.4753 1.1721C36.8953 0.375376 37.7845 -0.0285336 38.6385 0.143772L39.0009 0.25343L57.392 7.76839L75.7696 0.253645ZM57.6111 46.1026C58.7157 46.1026 59.6111 46.998 59.6111 48.1026C59.6111 49.0844 58.9036 49.901 57.9706 50.0704L57.6111 50.1026L51.18 50.1004V54.0826H56.4289C57.5335 54.0826 58.4289 54.978 58.4289 56.0826C58.4289 57.0644 57.7214 57.881 56.7884 58.0504L56.4289 58.0826H51.18V62.6684L57.3156 62.6693C58.2974 62.6693 59.114 63.3768 59.2833 64.3098L59.3156 64.6693C59.3156 65.6511 58.6081 66.4677 57.6751 66.6371L57.3156 66.6693H49.18C48.1982 66.6693 47.3816 65.9618 47.2122 65.0288L47.18 64.6693V56.0826V48.1026C47.18 47.1208 47.8875 46.3042 48.8205 46.1348L49.18 46.1026H57.6111ZM26.8335 48.1308C26.808 46.3204 28.9638 45.4652 30.1945 46.6337L30.4274 46.8947L39.384 58.7164L39.3867 48.1026C39.3867 47.1208 40.0942 46.3042 41.0272 46.1348L41.3867 46.1026C42.3685 46.1026 43.1851 46.8101 43.3544 47.7431L43.3867 48.1026V64.6693C43.3867 66.4665 41.2454 67.2985 40.0238 66.1365L39.7926 65.8772L30.916 54.1644L31.0665 64.6411C31.0803 65.6229 30.3844 66.4493 29.4538 66.6318L29.0948 66.6691C28.1131 66.6829 27.2866 65.987 27.1041 65.0565L27.0669 64.6974L26.8335 48.1308ZM86.5574 46.201C85.5071 45.8588 84.3784 46.4328 84.0362 47.483L80.54 58.2044L77.0599 47.4846L76.9146 47.1407C76.1226 45.6501 73.8144 45.7648 73.2556 47.4846L69.772 58.1964L66.2955 47.4846L66.1537 47.1527C65.7044 46.3177 64.7092 45.8971 63.7754 46.2005C62.7248 46.5418 62.1499 47.6701 62.4912 48.7206L67.8734 65.2872L68.0187 65.6312C68.8108 67.1218 71.1189 67.0071 71.6777 65.2872L75.156 54.5724L78.6379 65.2872L78.7831 65.6311C79.5747 67.1211 81.8816 67.0075 82.4416 65.2889L87.8394 48.7222L87.9201 48.3704C88.0481 47.4308 87.4909 46.5052 86.5574 46.201Z" fill="#4D4D4F"/>
<mask id="mask0_3777_284" style="mask-type:alpha" maskUnits="userSpaceOnUse" x="0" y="0" width="115" height="113">
<path fill-rule="evenodd" clip-rule="evenodd" d="M75.7696 0.253645C76.6167 -0.0927576 77.5745 0.182766 78.1141 0.887911L78.2958 1.1721L87.56 18.7404L106.475 24.8093C107.347 25.0888 107.903 25.9162 107.863 26.8034L107.819 27.138L103.604 46.5444L114.199 63.354C114.679 64.1164 114.584 65.0889 114.008 65.7425L113.731 66.0016L98.024 78.1604L95.3394 97.8401C95.2154 98.7468 94.4977 99.4382 93.6172 99.5526L93.2802 99.5678L81.2558 99.1011C80.152 99.0583 79.292 98.1288 79.3348 97.0251C79.3729 96.044 80.1115 95.2554 81.0504 95.1224L81.4109 95.1041L91.62 95.4964L94.1762 76.8118C94.233 76.3965 94.4182 76.0123 94.7022 75.711L94.9331 75.5014L109.844 63.9484L99.7858 47.9867C99.5762 47.6543 99.4708 47.2701 99.4781 46.8827L99.5233 46.4961L103.524 28.0604L85.5604 22.3026C85.1616 22.1748 84.8157 21.9259 84.5683 21.5944L84.4019 21.3309L75.6 4.64039L58.1504 11.7805C57.7866 11.9292 57.39 11.9665 57.0098 11.8922L56.6368 11.7807L39.168 4.64039L30.3692 21.3309C30.174 21.7012 29.8688 21.9985 29.4995 22.1845L29.2112 22.3025L11.26 28.0604L15.2481 46.4975C15.3311 46.8813 15.2988 47.278 15.1597 47.6392L14.9853 47.9867L4.924 63.9484L19.838 75.5014C20.1693 75.758 20.4096 76.1105 20.5287 76.507L20.5949 76.8118L23.148 95.5004L41.9944 94.7774C42.3864 94.7624 42.7712 94.863 43.1026 95.0624L43.4144 95.2942L57.392 107.964L65.3356 100.755C66.0626 100.095 67.1428 100.07 67.8953 100.647L68.1608 100.892C68.8207 101.619 68.8458 102.699 68.2689 103.451L68.0244 103.717L58.7377 112.148C58.0708 112.753 57.0971 112.829 56.3532 112.376L56.05 112.149L41.328 98.8044L21.4901 99.5678C20.5759 99.6029 19.7707 99.0162 19.5052 98.1692L19.4318 97.8401L16.74 78.1564L1.03979 66.0016C0.327389 65.4498 0.083487 64.5037 0.401475 63.6921L0.57243 63.354L11.164 46.5444L6.96743 27.1366C6.77402 26.2425 7.21181 25.3476 7.99971 24.9389L8.31103 24.8094L27.208 18.7444L36.4753 1.1721C36.8953 0.375376 37.7845 -0.0285336 38.6385 0.143772L39.0009 0.25343L57.392 7.76839L75.7696 0.253645ZM57.6111 46.1026C58.7157 46.1026 59.6111 46.998 59.6111 48.1026C59.6111 49.0844 58.9036 49.901 57.9706 50.0704L57.6111 50.1026L51.18 50.1004V54.0826H56.4289C57.5335 54.0826 58.4289 54.978 58.4289 56.0826C58.4289 57.0644 57.7214 57.881 56.7884 58.0504L56.4289 58.0826H51.18V62.6684L57.3156 62.6693C58.2974 62.6693 59.114 63.3768 59.2833 64.3098L59.3156 64.6693C59.3156 65.6511 58.6081 66.4677 57.6751 66.6371L57.3156 66.6693H49.18C48.1982 66.6693 47.3816 65.9618 47.2122 65.0288L47.18 64.6693V56.0826V48.1026C47.18 47.1208 47.8875 46.3042 48.8205 46.1348L49.18 46.1026H57.6111ZM26.8335 48.1308C26.808 46.3204 28.9638 45.4652 30.1945 46.6337L30.4274 46.8947L39.384 58.7164L39.3867 48.1026C39.3867 47.1208 40.0942 46.3042 41.0272 46.1348L41.3867 46.1026C42.3685 46.1026 43.1851 46.8101 43.3544 47.7431L43.3867 48.1026V64.6693C43.3867 66.4665 41.2454 67.2985 40.0238 66.1365L39.7926 65.8772L30.916 54.1644L31.0665 64.6411C31.0803 65.6229 30.3844 66.4493 29.4538 66.6318L29.0948 66.6691C28.1131 66.6829 27.2866 65.987 27.1041 65.0565L27.0669 64.6974L26.8335 48.1308ZM86.5574 46.201C85.5071 45.8588 84.3784 46.4328 84.0362 47.483L80.54 58.2044L77.0599 47.4846L76.9146 47.1407C76.1226 45.6501 73.8144 45.7648 73.2556 47.4846L69.772 58.1964L66.2955 47.4846L66.1537 47.1527C65.7044 46.3177 64.7092 45.8971 63.7754 46.2005C62.7248 46.5418 62.1499 47.6701 62.4912 48.7206L67.8734 65.2872L68.0187 65.6312C68.8108 67.1218 71.1189 67.0071 71.6777 65.2872L75.156 54.5724L78.6379 65.2872L78.7831 65.6311C79.5747 67.1211 81.8816 67.0075 82.4416 65.2889L87.8394 48.7222L87.9201 48.3704C88.0481 47.4308 87.4909 46.5052 86.5574 46.201Z" fill="white"/>
</mask>
<g mask="url(#mask0_3777_284)">
<rect x="-2" y="-3" width="50" height="50" fill="url(#paint0_linear_3777_284)"/>
<rect x="-2" y="-3" width="120" height="120" fill="url(#paint1_linear_3777_284)"/>
</g>
<defs>
<linearGradient id="paint0_linear_3777_284" x1="9.73841e-07" y1="-1.25" x2="56.4036" y2="23.9973" gradientUnits="userSpaceOnUse">
<stop offset="0.335832" stop-color="#00A0D2"/>
<stop offset="1" stop-color="#00D6FF"/>
</linearGradient>
<linearGradient id="paint1_linear_3777_284" x1="2.8" y1="1.19999" x2="138.169" y2="61.7936" gradientUnits="userSpaceOnUse">
<stop offset="0.335832" stop-color="#00A0D2"/>
<stop offset="1" stop-color="#00D6FF"/>
</linearGradient>
</defs>
</svg>
